<?xml version="1.0" ?>
<svg xmlns="http://www.w3.org/2000/svg" width="200" height="200" viewBox="0 0 200 200">
  <circle cx="100" cy="100" r="60" fill="#FFD54F" stroke="#A66A2C" stroke_width="6"/>
  <circle cx="100" cy="100" r="50" fill="none" stroke="#A66A2C" stroke_width="6" stroke_dasharray="10,10"/>
  <rect width="12" height="20" fill="#FFB74D" x="142.0" y="90" transform="rotate(0.0 100 100)"/>
  <rect width="12" height="20" fill="#FFB74D" x="142.0" y="90" transform="rotate(45.0 100 100)"/>
  <rect width="12" height="20" fill="#FFB74D" x="142.0" y="90" transform="rotate(90.0 100 100)"/>
  <rect width="12" height="20" fill="#FFB74D" x="142.0" y="90" transform="rotate(135.0 100 100)"/>
  <rect width="12" height="20" fill="#FFB74D" x="142.0" y="90" transform="rotate(180.0 100 100)"/>
  <rect width="12" height="20" fill="#FFB74D" x="142.0" y="90" transform="rotate(225.0 100 100)"/>
  <rect width="12" height="20" fill="#FFB74D" x="142.0" y="90" transform="rotate(270.0 100 100)"/>
  <rect width="12" height="20" fill="#FFB74D" x="142.0" y="90" transform="rotate(315.0 100 100)"/>
</svg>
